<?xml version="1.0" encoding="utf-8"?>
<!-- Generator: Adobe Illustrator 24.0.1, SVG Export Plug-In . SVG Version: 6.00 Build 0)  -->
<svg version="1.1" id="Layer_1" xmlns="http://www.w3.org/2000/svg" xmlns:xlink="http://www.w3.org/1999/xlink" x="0px" y="0px"
	 viewBox="0 0 800 700" enable-background="new 0 0 800 700" xml:space="preserve">
<g>
	<g>
		<path fill="#181F40" d="M193.67,462.03h-38.76v153.84h-23.13V462.03H80l13.27-22.12h113.67L193.67,462.03z"/>
		<path fill="#181F40" d="M276.83,487.92v22.87c-18.85-0.75-39.21,8.8-39.21,38.46v66.61h-21.87V490.18h21.87v21.12
			C245.66,493.7,260.99,487.92,276.83,487.92z"/>
		<path fill="#181F40" d="M299.45,452.72c0-8.04,6.54-14.83,14.83-14.83c8.04,0,14.58,6.79,14.58,14.83
			c0,8.04-6.54,14.58-14.58,14.58C305.99,467.3,299.45,460.77,299.45,452.72z M303.22,490.18h21.87v125.69h-21.87V490.18z"/>
		<path fill="#181F40" d="M398.49,511.3v68.12c0,19.1,11.06,17.85,33.43,16.84v19.61c-37.71,5.03-55.3-5.03-55.3-36.45V511.3h-24.89
			v-21.12h24.89v-28.66l21.87-6.54v35.19h33.43v21.12H398.49z"/>
		<path fill="#181F40" d="M449.52,553.02c0-37.2,29.41-66.11,66.11-66.11c36.7,0,66.36,28.91,66.36,66.11
			c0,37.2-29.66,66.11-66.36,66.11C478.93,619.13,449.52,590.23,449.52,553.02z M560.13,553.02c0-25.39-19.36-44.74-44.49-44.74
			c-24.89,0-44.24,19.36-44.24,44.74c0,25.39,19.36,44.74,44.24,44.74C540.77,597.77,560.13,578.41,560.13,553.02z"/>
		<path fill="#181F40" d="M720,538.69v77.17h-21.87v-75.91c0-20.61-11.81-32.18-31.17-32.18c-20.11,0-36.45,11.81-36.45,41.48v66.61
			h-21.87V490.18h21.87v18.1c9.3-14.83,23.13-21.37,40.72-21.37C700.64,486.91,720,506.52,720,538.69z"/>
	</g>
	<g>
		<polygon fill="#181F40" points="540.95,122.93 528.32,143.96 439.98,143.96 439.98,164.99 515.7,164.99 503.09,186.02 
			439.98,186.02 439.98,291.18 418.95,326.24 418.95,122.93 		"/>
		<polygon fill="#181F40" points="566.18,80.87 553.57,101.9 397.92,101.9 397.92,361.29 387.4,378.82 376.89,361.31 376.89,101.9 
			221.25,101.9 208.64,80.87 		"/>
		<polygon fill="#181F40" points="355.86,122.93 355.86,326.25 334.82,291.18 334.82,186.02 271.73,186.02 259.11,164.99 
			334.82,164.99 334.82,143.96 246.48,143.96 233.87,122.93 		"/>
	</g>
</g>
</svg>
