<?xml version="1.0" encoding="utf-8"?>
<!-- Generator: Adobe Illustrator 24.0.1, SVG Export Plug-In . SVG Version: 6.00 Build 0)  -->
<svg version="1.1" id="Layer_1" xmlns="http://www.w3.org/2000/svg" xmlns:xlink="http://www.w3.org/1999/xlink" x="0px" y="0px"
	 viewBox="0 0 600 600" enable-background="new 0 0 600 600" xml:space="preserve">
<g>
	<g>
		<polygon fill="#FFFFFF" points="506.13,156.46 489.17,184.7 370.58,184.7 370.58,212.93 472.24,212.93 455.3,241.16 
			370.58,241.16 370.58,382.35 342.35,429.41 342.35,156.46 		"/>
		<polygon fill="#FFFFFF" points="540,100 523.06,128.23 314.12,128.23 314.12,476.47 299.99,500 285.88,476.49 285.88,128.23 
			76.94,128.23 60,100 		"/>
		<polygon fill="#FFFFFF" points="257.65,156.46 257.65,429.43 229.4,382.35 229.4,241.16 144.7,241.16 127.76,212.93 229.4,212.93 
			229.4,184.7 110.81,184.7 93.87,156.46 		"/>
	</g>
</g>
</svg>
